<svg xmlns="http://www.w3.org/2000/svg" viewBox="0 0 100 100">
  <defs>
    <linearGradient id="leaf" x1="0%" y1="0%" x2="100%" y2="100%">
      <stop offset="0%" style="stop-color:#059669;stop-opacity:1" />
      <stop offset="100%" style="stop-color:#047857;stop-opacity:1" />
    </linearGradient>
  </defs>
  <path d="M50 10 C30 20 15 40 15 60 C15 75 25 88 40 92 C45 93 50 90 50 90 C50 90 55 93 60 92 C75 88 85 75 85 60 C85 40 70 20 50 10Z"
        fill="url(#leaf)"/>
  <path d="M50 90 C50 90 40 70 40 50 C40 35 45 25 50 18"
        fill="none" stroke="#B8860B" stroke-width="2" opacity="0.6"/>
  <path d="M50 90 C50 90 60 70 60 50 C60 35 55 25 50 18"
        fill="none" stroke="#B8860B" stroke-width="2" opacity="0.6"/>
  <circle cx="50" cy="50" r="3" fill="#B8860B" opacity="0.8"/>
</svg>
